<svg xmlns="http://www.w3.org/2000/svg" width="32" height="39.019" viewBox="0 0 32 39.019">
  <path id="ic_location" d="M984,196.265a3.377,3.377,0,0,0,2.471-1.019,3.433,3.433,0,0,0,0-4.9,3.514,3.514,0,0,0-4.945,0,3.433,3.433,0,0,0,0,4.9A3.4,3.4,0,0,0,984,196.265Zm.021,19.708a1.98,1.98,0,0,1-.625-.1,1.774,1.774,0,0,1-.55-.3,63.468,63.468,0,0,1-11.15-12.027q-3.7-5.541-3.7-10.354,0-7.428,4.825-11.835a16.372,16.372,0,0,1,22.35,0q4.825,4.407,4.825,11.835,0,4.8-3.7,10.349a63.387,63.387,0,0,1-11.15,12.033,1.86,1.86,0,0,1-.525.3A1.758,1.758,0,0,1,984.025,215.972Z" transform="translate(-968 -176.953)" fill="#205760"/>
</svg>
